HIERARCHY
ROOT Hips
{
	OFFSET 0.000000 0.000000 0.000000
	CHANNELS 6 Xposition Yposition Zposition Xrotation Yrotation Zrotation
	JOINT Chest
	{
		OFFSET 0.000000 0.009282 11.569106
		CHANNELS 3 Xrotation Yrotation Zrotation
		JOINT Chest2
		{
			OFFSET 0.000000 -0.016863 9.269641
			CHANNELS 3 Xrotation Yrotation Zrotation
			JOINT Chest3
			{
				OFFSET 0.000000 0.000000 8.374491
				CHANNELS 3 Xrotation Yrotation Zrotation
				JOINT Chest4
				{
					OFFSET 0.000000 0.000000 8.374493
					CHANNELS 3 Xrotation Yrotation Zrotation
					JOINT Neck
					{
						OFFSET 0.000000 -0.000001 12.152554
						CHANNELS 3 Xrotation Yrotation Zrotation
						JOINT Head
						{
							OFFSET 0.000000 -0.040100 7.802319
							CHANNELS 3 Xrotation Yrotation Zrotation
							End Site
							{
								OFFSET 0.000000 -0.020946 14.853096
							}
						}
					}
					JOINT RightCollar
					{
						OFFSET -2.894404 0.000000 6.791374
						CHANNELS 3 Xrotation Yrotation Zrotation
						JOINT RightShoulder
						{
							OFFSET -13.574684 0.000000 0.000000
							CHANNELS 3 Xrotation Yrotation Zrotation
							JOINT RightElbow
							{
								OFFSET -23.923903 0.000000 0.000000
								CHANNELS 3 Xrotation Yrotation Zrotation
								JOINT RightWrist
								{
									OFFSET -19.846718 -0.012765 0.000000
									CHANNELS 3 Xrotation Yrotation Zrotation
									End Site
									{
										OFFSET -14.973145 0.000000 0.000000
									}
								}
							}
						}
					}
					JOINT LeftCollar
					{
						OFFSET 2.894404 0.000000 6.791374
						CHANNELS 3 Xrotation Yrotation Zrotation
						JOINT LeftShoulder
						{
							OFFSET 13.574684 0.000000 0.000000
							CHANNELS 3 Xrotation Yrotation Zrotation
							JOINT LeftElbow
							{
								OFFSET 23.923903 0.000000 0.000000
								CHANNELS 3 Xrotation Yrotation Zrotation
								JOINT LeftWrist
								{
									OFFSET 19.846718 -0.012765 0.000000
									CHANNELS 3 Xrotation Yrotation Zrotation
									End Site
									{
										OFFSET 14.973145 0.000000 0.000000
									}
								}
							}
						}
					}
				}
			}
		}
	}
	JOINT RightHip
	{
		OFFSET -9.469263 -0.004642 0.045487
		CHANNELS 3 Xrotation Yrotation Zrotation
		JOINT RightKnee
		{
			OFFSET 0.000000 -0.002666 -40.478676
			CHANNELS 3 Xrotation Yrotation Zrotation
			JOINT RightAnkle
			{
				OFFSET 0.000000 -0.049110 -35.224068
				CHANNELS 3 Xrotation Yrotation Zrotation
				JOINT RightToe
				{
					OFFSET 0.000000 -12.539530 -6.151390
					CHANNELS 3 Xrotation Yrotation Zrotation
					End Site
					{
						OFFSET 0.000000 -5.044995 -1.291870
					}
				}
			}
		}
	}
	JOINT LeftHip
	{
		OFFSET 9.469263 -0.004642 0.045487
		CHANNELS 3 Xrotation Yrotation Zrotation
		JOINT LeftKnee
		{
			OFFSET 0.000000 -0.002666 -40.478676
			CHANNELS 3 Xrotation Yrotation Zrotation
			JOINT LeftAnkle
			{
				OFFSET 0.000000 -0.049110 -35.224068
				CHANNELS 3 Xrotation Yrotation Zrotation
				JOINT LeftToe
				{
					OFFSET 0.000000 -12.539530 -6.151390
					CHANNELS 3 Xrotation Yrotation Zrotation
					End Site
					{
						OFFSET 0.000000 -5.044995 -1.291870
					}
				}
			}
		}
	}
}
MOTION
Frames: 15
Frame Time: 0.016667
-10.308740 -3.763867 82.924782 4.559086 7.380074 -120.252775 4.894219 -0.506183 -0.040959 2.176453 -0.198192 0.112439 2.176453 -0.198192 0.112443 1.632302 -0.149047 0.083628 21.900056 1.488026 -4.419704 4.667773 3.956095 -7.683981 -0.798356 -1.277956 -2.053610 9.881849 -49.798318 50.654022 35.316955 -41.911236 65.268065 6.108497 -15.941807 -28.087620 3.275253 8.474795 -12.409165 -11.420735 47.082174 -43.560901 45.493438 32.745221 -72.832438 7.920316 9.824080 -6.814662 10.043058 -0.139407 1.261317 2.403204 0.780888 -0.284814 -4.133278 -1.926524 6.565019 0.176254 0.054237 -0.036199 12.576368 0.377978 3.843687 2.072550 -0.629108 7.312154 -5.995099 0.555754 -1.386028 -0.153285 0.040142 0.023236 
-10.316936 -3.747773 82.926514 4.537430 7.355636 -120.279522 4.884174 -0.528093 -0.082786 2.172435 -0.206540 0.092097 2.172436 -0.206540 0.092094 1.629293 -0.155234 0.068337 21.865124 1.537962 -4.400216 4.603836 4.044172 -7.633676 -0.814508 -1.252613 -2.034795 9.857386 -49.829693 50.507425 36.206928 -44.671517 67.223097 4.626359 -17.310824 -28.092305 3.251816 8.438549 -12.412429 -11.460327 47.309934 -43.855207 44.209970 35.017321 -72.555870 6.948963 11.381720 -4.847733 10.034023 -0.128909 1.310658 2.383158 0.778950 -0.288479 -4.132011 -1.925605 6.578467 0.169854 0.049208 -0.035100 12.568701 0.385371 3.886092 2.040922 -0.635374 7.316934 -5.984050 0.570357 -1.402628 -0.155680 0.028898 0.023175 
-10.324197 -3.733571 82.927910 4.513558 7.333680 -120.296830 4.862189 -0.549378 -0.145140 2.162742 -0.214898 0.063071 2.162743 -0.214898 0.063062 1.622034 -0.161398 0.046538 21.844009 1.589757 -4.370474 4.564870 4.131979 -7.564353 -0.788849 -1.218512 -1.971721 9.946101 -49.971252 50.505007 37.154918 -46.992122 69.257490 3.015637 -18.666070 -27.850253 3.283996 8.419635 -12.402987 -11.619804 47.606193 -44.095756 43.007133 36.540733 -72.251011 5.749278 13.038743 -3.154262 10.027646 -0.120976 1.343487 2.357372 0.778387 -0.284041 -4.128522 -1.920784 6.588622 0.166116 0.044446 -0.035352 12.561945 0.392213 3.895809 2.004829 -0.635865 7.328505 -5.968970 0.579699 -1.413988 -0.157284 0.019638 0.023033 
-10.329227 -3.719743 82.929085 4.486471 7.311776 -120.306105 4.843580 -0.560935 -0.206885 2.154328 -0.219038 0.034793 2.154328 -0.219038 0.034791 1.615732 -0.164404 0.025328 21.816201 1.625914 -4.342466 4.512901 4.192017 -7.502299 -0.795633 -1.211885 -1.897821 10.019502 -50.233699 50.495575 38.193335 -49.556745 71.324039 1.405658 -19.885368 -27.623407 3.314248 8.394551 -12.398889 -11.877795 47.971393 -44.240932 41.886880 37.881366 -71.879497 3.685392 14.738759 -1.252472 10.023572 -0.115601 1.371642 2.321954 0.783086 -0.289489 -4.121029 -1.916384 6.559279 0.164620 0.039587 -0.035437 12.544750 0.402553 3.886000 1.983128 -0.637738 7.356273 -5.959808 0.589081 -1.399128 -0.157936 0.012191 0.022604 
-10.331378 -3.707738 82.929871 4.459023 7.289678 -120.311296 4.845105 -0.563569 -0.254835 2.154783 -0.219950 0.012784 2.154782 -0.219950 0.012786 1.616080 -0.165011 0.008807 21.763930 1.643027 -4.323873 4.415295 4.221220 -7.462060 -0.834076 -1.234333 -1.821150 9.976074 -50.641837 50.371723 39.475235 -52.412737 73.565987 -0.268591 -21.003156 -27.530875 3.278845 8.361876 -12.408093 -12.020055 48.344226 -44.431426 40.587894 39.719982 -71.397552 2.108607 16.316953 0.794393 10.014517 -0.110230 1.407028 2.293988 0.792684 -0.313969 -4.116622 -1.919327 6.568190 0.164597 0.036084 -0.034468 12.518985 0.408275 3.873727 1.971726 -0.638829 7.387480 -5.954491 0.599823 -1.414541 -0.156016 0.007903 0.021220 
-10.331747 -3.697891 82.931084 4.431191 7.266311 -120.313755 4.857844 -0.568166 -0.300189 2.160086 -0.221907 -0.008403 2.160086 -0.221907 -0.008401 1.620065 -0.166403 -0.007084 21.691132 1.660289 -4.312432 4.280071 4.253852 -7.434290 -0.900193 -1.266882 -1.716574 9.893036 -51.216389 50.191720 41.064323 -55.265946 76.061410 -1.947947 -21.970681 -27.499769 3.248068 8.326290 -12.426385 -11.940929 48.696684 -44.767710 39.007490 41.668628 -70.757857 1.065909 17.598923 2.742634 9.998117 -0.105518 1.440795 2.273947 0.797986 -0.342619 -4.112931 -1.920026 6.573144 0.164003 0.034601 -0.034242 12.489872 0.416883 3.875151 1.960607 -0.641261 7.398253 -5.947637 0.605007 -1.424445 -0.154344 0.006004 0.020549 
-10.331990 -3.689793 82.933495 4.406661 7.247197 -120.317361 4.863010 -0.579161 -0.347646 2.162345 -0.227045 -0.030097 2.162345 -0.227045 -0.030103 1.621768 -0.170179 -0.023376 21.617349 1.685331 -4.305790 4.143666 4.302085 -7.413141 -0.923508 -1.274329 -1.606478 9.822609 -51.939251 50.058060 42.954810 -57.752521 78.875974 -3.671575 -22.745560 -27.385630 3.285905 8.294015 -12.440232 -11.705930 49.060600 -45.219783 37.188372 43.129926 -69.902198 -0.231451 18.810495 4.545053 9.986419 -0.098882 1.455234 2.253240 0.805149 -0.345353 -4.106452 -1.924215 6.571713 0.161690 0.033889 -0.034142 12.465371 0.425551 3.894165 1.948741 -0.644860 7.392338 -5.937295 0.609591 -1.424017 -0.154654 0.004872 0.019667 
-10.329840 -3.683692 82.936790 4.383273 7.228549 -120.319438 4.870591 -0.606907 -0.393575 2.166495 -0.239199 -0.051887 2.166495 -0.239199 -0.051884 1.624889 -0.179218 -0.039762 21.537835 1.723413 -4.310108 3.997902 4.377569 -7.408230 -0.921520 -1.234212 -1.489652 9.793778 -52.722261 50.009757 44.991542 -59.773492 81.908988 -5.572764 -23.413351 -27.180451 3.281880 8.307628 -12.440389 -11.398611 49.496475 -45.701168 35.331609 44.231543 -68.815645 -1.713051 20.017143 5.994258 9.972946 -0.087890 1.450363 2.233003 0.802943 -0.324160 -4.096354 -1.924760 6.579863 0.157805 0.034574 -0.034355 12.441338 0.435071 3.918548 1.932460 -0.650892 7.370620 -5.922373 0.612274 -1.415161 -0.155103 0.004473 0.019464 
-10.328952 -3.682077 82.939590 4.358167 7.205873 -120.321815 4.881525 -0.641181 -0.446275 2.171634 -0.254448 -0.076567 2.171633 -0.254448 -0.076566 1.628755 -0.190567 -0.058339 21.456119 1.772422 -4.313500 3.848406 4.472906 -7.398425 -0.928703 -1.201982 -1.334626 9.870107 -53.494059 50.072472 47.145890 -61.585248 85.067363 -7.524751 -24.009723 -26.981499 3.203319 8.395113 -12.432302 -11.094427 49.946598 -46.078935 33.504315 45.403058 -67.601592 -3.098901 21.087359 7.119625 9.952406 -0.075193 1.447422 2.214988 0.794581 -0.314497 -4.088296 -1.922870 6.548399 0.156189 0.035788 -0.036020 12.413307 0.446607 3.942853 1.913977 -0.658112 7.346794 -5.907961 0.614332 -1.415840 -0.153970 0.003289 0.019810 
-10.327073 -3.680381 82.941734 4.329491 7.176633 -120.319984 4.904605 -0.680446 -0.515488 2.181742 -0.271295 -0.109293 2.181741 -0.271295 -0.109289 1.636352 -0.203083 -0.082936 21.364717 1.833435 -4.310476 3.680949 4.588949 -7.373052 -0.989513 -1.186011 -1.118295 10.077417 -54.237228 50.246949 49.538279 -63.400329 88.452903 -9.305031 -24.577281 -26.850105 3.129757 8.478459 -12.421729 -10.832569 50.400704 -46.350159 31.704908 46.647354 -66.391843 -4.304682 22.054264 8.083146 9.928544 -0.059754 1.447705 2.190440 0.790793 -0.316307 -4.078072 -1.930992 6.561365 0.155359 0.037547 -0.035519 12.378263 0.453729 3.971405 1.893064 -0.657491 7.328159 -5.892945 0.613672 -1.433292 -0.151695 0.001647 0.020148 
-10.328255 -3.681425 82.944939 4.300157 7.154744 -120.314110 4.931164 -0.712412 -0.602407 2.193466 -0.284423 -0.149111 2.193466 -0.284423 -0.149110 1.645166 -0.212785 -0.112858 21.273790 1.898375 -4.293619 3.513455 4.708183 -7.321093 -1.136828 -1.218304 -0.813108 10.342238 -55.029048 50.391954 52.325321 -65.117726 92.182788 -10.857437 -25.004501 -26.619262 3.092417 8.532908 -12.406972 -10.469572 50.812451 -46.644352 29.722425 47.833755 -65.137021 -5.459943 23.071860 9.071502 9.914497 -0.050424 1.450845 2.156833 0.788087 -0.321783 -4.064530 -1.931411 6.476696 0.155436 0.040054 -0.036840 12.350953 0.468937 3.986692 1.868850 -0.661322 7.316122 -5.871373 0.614511 -1.439008 -0.153961 -0.001323 0.021632 
-10.326217 -3.678725 82.949120 4.265960 7.130076 -120.308646 4.948268 -0.738928 -0.688837 2.201837 -0.294321 -0.189021 2.201837 -0.294321 -0.189020 1.651465 -0.220063 -0.142823 21.183524 1.953867 -4.274422 3.346601 4.809375 -7.267318 -1.219032 -1.249908 -0.476717 10.609510 -55.944461 50.569433 55.276219 -66.524540 96.086309 -12.466172 -25.352658 -26.320103 3.069886 8.601183 -12.375994 -9.970715 51.223666 -47.027413 27.614976 48.987654 -63.750698 -6.838855 24.114335 10.190516 9.897496 -0.023848 1.468155 2.124089 0.782553 -0.337265 -4.050919 -1.943691 6.501184 0.153075 0.041666 -0.033816 12.317324 0.483359 3.988784 1.845261 -0.663999 7.311730 -5.844297 0.619580 -1.433324 -0.159303 -0.005414 0.021025 
-10.325287 -3.678724 82.953041 4.229353 7.106764 -120.299589 4.970812 -0.753591 -0.759802 2.212371 -0.299865 -0.221832 2.212371 -0.299865 -0.221821 1.659384 -0.224099 -0.167461 21.084437 1.987155 -4.264476 3.163123 4.873045 -7.236418 -1.279111 -1.267547 -0.228904 11.068671 -57.012832 50.989927 58.061737 -67.536863 99.855160 -14.253648 -25.680726 -26.071693 3.046176 8.672736 -12.353288 -9.464731 51.707428 -47.414856 25.519487 50.131331 -62.238924 -8.281629 25.083680 11.123134 9.879892 -0.004718 1.489487 2.088282 0.776587 -0.353715 -4.036197 -1.948088 6.502472 0.152757 0.044776 -0.034897 12.283330 0.498828 3.982988 1.821176 -0.663172 7.303424 -5.815084 0.624171 -1.429801 -0.165112 -0.011123 0.021984 
-10.320979 -3.677596 82.955917 4.198474 7.085880 -120.290136 4.993959 -0.767807 -0.827121 2.222954 -0.305431 -0.253670 2.222954 -0.305431 -0.253675 1.667339 -0.228155 -0.191370 20.985544 2.014287 -4.260349 2.980152 4.927075 -7.217870 -1.311280 -1.279224 0.002457 11.732600 -58.141241 51.648337 60.422947 -68.149968 103.293135 -16.238724 -25.975501 -25.842285 3.015946 8.740417 -12.300267 -8.932159 52.285771 -47.785250 23.432508 51.289987 -60.640448 -9.688741 25.900846 11.728602 9.863140 0.013763 1.515000 2.059875 0.770360 -0.360153 -4.026913 -1.955603 6.455859 0.153220 0.047996 -0.034506 12.250562 0.505627 3.985997 1.802710 -0.655716 7.290488 -5.793230 0.626531 -1.429959 -0.164954 -0.015146 0.022441 
-10.315009 -3.677319 82.957840 4.171879 7.071061 -120.282145 5.015390 -0.782549 -0.881406 2.232577 -0.311313 -0.279620 2.232578 -0.311312 -0.279610 1.674572 -0.232467 -0.210851 20.893561 2.036561 -4.267307 2.810647 4.975034 -7.221209 -1.297046 -1.317763 0.260081 12.368472 -59.310426 52.363324 62.555927 -68.631045 106.405215 -18.289351 -26.193859 -25.595169 3.005394 8.791908 -12.244740 -8.315965 52.966737 -48.202236 21.267568 52.379686 -58.932621 -11.152245 26.747661 12.358070 9.850853 0.024898 1.536435 2.033282 0.770731 -0.367418 -4.019942 -1.965217 6.407841 0.156668 0.052014 -0.035030 12.219430 0.511810 3.998865 1.793898 -0.649639 7.275574 -5.778588 0.630756 -1.439307 -0.161487 -0.018168 0.023035 
